<?xml version="1.0" encoding="UTF-8" standalone="no"?>
<!-- Generator: Adobe Illustrator 19.0.0, SVG Export Plug-In . SVG Version: 6.00 Build 0)  -->

<svg
   xmlns:dc="http://purl.org/dc/elements/1.1/"
   xmlns:cc="http://creativecommons.org/ns#"
   xmlns:rdf="http://www.w3.org/1999/02/22-rdf-syntax-ns#"
   xmlns:svg="http://www.w3.org/2000/svg"
   xmlns="http://www.w3.org/2000/svg"
   xmlns:sodipodi="http://sodipodi.sourceforge.net/DTD/sodipodi-0.dtd"
   xmlns:inkscape="http://www.inkscape.org/namespaces/inkscape"
   version="1.1"
   id="Layer_1"
   x="0px"
   y="0px"
   viewBox="0 0 509.287 509.287"
   style="enable-background:new 0 0 509.287 509.287;"
   xml:space="preserve"
   sodipodi:docname="bank.svg"
   inkscape:version="0.92.2 (5c3e80d, 2017-08-06)"><metadata
     id="metadata77"><rdf:RDF><cc:Work
         rdf:about=""><dc:format>image/svg+xml</dc:format><dc:type
           rdf:resource="http://purl.org/dc/dcmitype/StillImage" /></cc:Work></rdf:RDF></metadata><defs
     id="defs75" /><sodipodi:namedview
     pagecolor="#ffffff"
     bordercolor="#666666"
     borderopacity="1"
     objecttolerance="10"
     gridtolerance="10"
     guidetolerance="10"
     inkscape:pageopacity="0"
     inkscape:pageshadow="2"
     inkscape:window-width="984"
     inkscape:window-height="543"
     id="namedview73"
     showgrid="false"
     inkscape:zoom="0.46339295"
     inkscape:cx="351.22676"
     inkscape:cy="254.64349"
     inkscape:window-x="0"
     inkscape:window-y="0"
     inkscape:window-maximized="0"
     inkscape:current-layer="Layer_1" /><rect
     x="115.285"
     y="161.399"
     style="fill:#646B79;"
     width="279.057"
     height="273.293"
     id="rect4" /><polygon
     style="fill:#F1F3F7;"
     points="479.449,149.87 254.644,34.246 29.838,149.87 "
     id="polygon6" /><polygon
     style="fill:#FCFCFD;"
     points="126.474,126.474 254.644,60.694 382.813,126.474 "
     id="polygon8" /><g
     id="g14"><rect
       x="60.016"
       y="149.87"
       style="fill:#DEDEDF;"
       width="389.256"
       height="22.718"
       id="rect10" /><rect
       x="60.016"
       y="423.502"
       style="fill:#DEDEDF;"
       width="389.256"
       height="22.718"
       id="rect12" /></g><g
     id="g22"><rect
       x="40.011"
       y="445.203"
       style="fill:#BDBDBE;"
       width="429.266"
       height="22.718"
       id="rect16" /><path
       style="fill:#BDBDBE;"
       d="M70.188,172.927v13.563c0,9.155,7.46,16.615,16.615,16.615h57.642   c9.155,0,16.615-7.46,16.615-16.615v-13.563H70.188z"
       id="path18" /><path
       style="fill:#BDBDBE;"
       d="M161.06,423.502v-13.563c0-9.155-7.46-16.615-16.615-16.615H86.803   c-9.155,0-16.615,7.46-16.615,16.615v13.563H161.06z"
       id="path20" /></g><rect
     x="86.124"
     y="203.105"
     style="fill:#DEDEDF;"
     width="59.338"
     height="190.559"
     id="rect24" /><g
     id="g30"><path
       style="fill:#BDBDBE;"
       d="M209.886,172.927v13.563c0,9.155,7.46,16.615,16.615,16.615h57.981   c9.155,0,16.615-7.46,16.615-16.615v-13.563H209.886z"
       id="path26" /><path
       style="fill:#BDBDBE;"
       d="M300.758,423.502v-13.563c0-9.155-7.46-16.615-16.615-16.615h-57.981   c-9.155,0-16.615,7.46-16.615,16.615v13.563H300.758z"
       id="path28" /></g><rect
     x="225.483"
     y="203.105"
     style="fill:#DEDEDF;"
     width="59.338"
     height="190.559"
     id="rect32" /><g
     id="g38"><path
       style="fill:#BDBDBE;"
       d="M349.245,172.927v13.563c0,9.155,7.46,16.615,16.615,16.615h57.981   c9.155,0,16.615-7.46,16.615-16.615v-13.563H349.245z"
       id="path34" /><path
       style="fill:#BDBDBE;"
       d="M440.117,423.502v-13.563c0-9.155-7.46-16.615-16.615-16.615H365.86   c-9.155,0-16.615,7.46-16.615,16.615v13.563H440.117z"
       id="path36" /></g><rect
     x="365.181"
     y="203.105"
     style="fill:#DEDEDF;"
     width="59.338"
     height="190.559"
     id="rect40" /><g
     id="g42" /><g
     id="g44" /><g
     id="g46" /><g
     id="g48" /><g
     id="g50" /><g
     id="g52" /><g
     id="g54" /><g
     id="g56" /><g
     id="g58" /><g
     id="g60" /><g
     id="g62" /><g
     id="g64" /><g
     id="g66" /><g
     id="g68" /><g
     id="g70" /></svg>