<?xml version="1.0" encoding="UTF-8" standalone="no"?>
<!-- Generator: Adobe Illustrator 19.0.0, SVG Export Plug-In . SVG Version: 6.00 Build 0)  -->

<svg
   xmlns:dc="http://purl.org/dc/elements/1.1/"
   xmlns:cc="http://creativecommons.org/ns#"
   xmlns:rdf="http://www.w3.org/1999/02/22-rdf-syntax-ns#"
   xmlns:svg="http://www.w3.org/2000/svg"
   xmlns="http://www.w3.org/2000/svg"
   xmlns:sodipodi="http://sodipodi.sourceforge.net/DTD/sodipodi-0.dtd"
   xmlns:inkscape="http://www.inkscape.org/namespaces/inkscape"
   version="1.1"
   id="Capa_1"
   x="0px"
   y="0px"
   viewBox="0 0 512 512"
   style="enable-background:new 0 0 512 512;"
   xml:space="preserve"
   sodipodi:docname="hacker.svg"
   inkscape:version="0.92.2 (5c3e80d, 2017-08-06)"><metadata
     id="metadata63"><rdf:RDF><cc:Work
         rdf:about=""><dc:format>image/svg+xml</dc:format><dc:type
           rdf:resource="http://purl.org/dc/dcmitype/StillImage" /></cc:Work></rdf:RDF></metadata><defs
     id="defs61" /><sodipodi:namedview
     pagecolor="#ffffff"
     bordercolor="#666666"
     borderopacity="1"
     objecttolerance="10"
     gridtolerance="10"
     guidetolerance="10"
     inkscape:pageopacity="0"
     inkscape:pageshadow="2"
     inkscape:window-width="2059"
     inkscape:window-height="1180"
     id="namedview59"
     showgrid="false"
     inkscape:zoom="1.3037281"
     inkscape:cx="244.35579"
     inkscape:cy="294.05646"
     inkscape:window-x="565"
     inkscape:window-y="223"
     inkscape:window-maximized="0"
     inkscape:current-layer="Capa_1" /><path
     style="fill:#0D70B2;"
     d="M413.5,512c-120.3,0-84,0-157.5,0H98.5c-51,0-87.001-49.799-71.1-98.101l36-115.599  c12.299-34.2,37.8-62.401,70.8-77.701h244.2c32.399,15.3,57.9,43.5,69.899,77.401L484.6,413.899  C500.501,462.201,464.5,512,413.5,512z"
     id="path2" /><path
     style="fill:#0D70B2;"
     d="M412.301,167.799L256,167.501l-156-0.3l96.901-136.594C211,11.706,232-0.293,256,0.005h1.8  c24.3,0.3,46.199,11.7,60.601,31.501L412.301,167.799z"
     id="path6" /><g
     id="g12"><path
       style="fill:#095C92;"
       d="M421,193c0,10.201-4.2,25.201-23.101,39.901c-0.3,0-0.3,0-0.3,0.3L267.1,336.401   c-2.699,2.098-6,3.3-9.3,3.3c-0.601,0-1.199,0-1.8-0.3c-2.401-0.3-5.099-1.199-7.2-2.999L115.901,234.1c-0.3,0-0.3,0-0.3,0   l-0.3-0.3c0,0,0,0,0-0.3C95.2,218.8,91,203.499,91,193c0-9,2.999-17.701,9-25.8c15.901-21.301,47.701-33.9,81-41.1v39.899l75-0.298   l75-0.3v-39.3c33.9,7.2,66,20.099,81.599,41.699C418.001,175.599,421,184.301,421,193z"
       id="path10" /></g><path
     style="fill:#FEDBAB;"
     d="M331,126.101v39.3C329.2,206.5,296.499,238,256,238s-73.2-31.5-75-72.001V126.1  c26.4-5.7,53.401-8.101,75-8.101C277.301,118,304.6,120.401,331,126.101z"
     id="path16" /><g
     id="g28" /><g
     id="g30" /><g
     id="g32" /><g
     id="g34" /><g
     id="g36" /><g
     id="g38" /><g
     id="g40" /><g
     id="g42" /><g
     id="g44" /><g
     id="g46" /><g
     id="g48" /><g
     id="g50" /><g
     id="g52" /><g
     id="g54" /><g
     id="g56" /><path
     id="path520"
     d="M 374.994,513.26099 H 138.46297 c -8.23981,0 -15.51023,-3.87755 -16.47962,-9.2092 L 92.416962,358.64337 c -1.45408,-7.75512 5.331644,-14.05615 15.510238,-14.05615 h 297.60257 c 10.17859,0 16.96432,6.30103 15.51024,14.05615 l -29.56639,145.40842 c -0.96938,4.84695 -8.23981,9.2092 -16.47962,9.2092 z"
     style="fill:#324a5e;stroke-width:1"
     inkscape:connector-curvature="0" /><ellipse
     id="ellipse522"
     ry="15.510233"
     rx="36.352108"
     cy="422.1384"
     cx="256.72849"
     style="fill:#2b3b4e;stroke-width:1" /></svg>