<?xml version="1.0" encoding="UTF-8" standalone="no"?>
<!-- Generator: Adobe Illustrator 19.0.0, SVG Export Plug-In . SVG Version: 6.00 Build 0)  -->

<svg
   xmlns:dc="http://purl.org/dc/elements/1.1/"
   xmlns:cc="http://creativecommons.org/ns#"
   xmlns:rdf="http://www.w3.org/1999/02/22-rdf-syntax-ns#"
   xmlns:svg="http://www.w3.org/2000/svg"
   xmlns="http://www.w3.org/2000/svg"
   xmlns:sodipodi="http://sodipodi.sourceforge.net/DTD/sodipodi-0.dtd"
   xmlns:inkscape="http://www.inkscape.org/namespaces/inkscape"
   version="1.1"
   id="Capa_1"
   x="0px"
   y="0px"
   viewBox="0 0 505.698 505.698"
   style="enable-background:new 0 0 505.698 505.698;"
   xml:space="preserve"
   sodipodi:docname="security.svg"
   inkscape:version="0.92.2 (5c3e80d, 2017-08-06)"><metadata
     id="metadata67"><rdf:RDF><cc:Work
         rdf:about=""><dc:format>image/svg+xml</dc:format><dc:type
           rdf:resource="http://purl.org/dc/dcmitype/StillImage" /></cc:Work></rdf:RDF></metadata><defs
     id="defs65" /><sodipodi:namedview
     pagecolor="#ffffff"
     bordercolor="#666666"
     borderopacity="1"
     objecttolerance="10"
     gridtolerance="10"
     guidetolerance="10"
     inkscape:pageopacity="0"
     inkscape:pageshadow="2"
     inkscape:window-width="1798"
     inkscape:window-height="1210"
     id="namedview63"
     showgrid="false"
     inkscape:zoom="1.3199752"
     inkscape:cx="211.13128"
     inkscape:cy="238.2161"
     inkscape:window-x="0"
     inkscape:window-y="0"
     inkscape:window-maximized="0"
     inkscape:current-layer="Capa_1" /><path
     style="fill:#FFFFFF;"
     d="M202.437,8.566L7.877,80.246v219.766c0,0,11.028,135.483,194.56,197.711  c182.745-62.228,194.56-197.711,194.56-197.711V80.246L202.437,8.566z"
     id="path2" /><path
     style="fill:#183651;"
     d="M202.437,504.812c-0.788,0-1.575,0-2.363-0.788C14.178,441.797,0.788,306.314,0,300.012V80.246  c0-3.151,2.363-6.302,5.514-7.089l194.56-71.68c1.575-0.788,3.938-0.788,5.514,0l194.56,71.68c3.151,0.788,5.514,3.938,5.514,7.089  v219.766c-0.788,6.302-14.178,141.785-200.074,204.8C204.012,504.812,203.225,504.812,202.437,504.812z M15.754,85.76v214.252  c0.788,4.726,13.391,129.182,186.683,189.046C375.729,429.194,389.12,300.8,389.12,299.225V85.76L202.437,17.231L15.754,85.76z"
     id="path4" /><path
     style="fill:#E1E6E8;"
     d="M202.437,42.437v421.415c144.148-52.775,161.477-154.388,163.052-165.415V102.302L202.437,42.437z"
     id="path8" /><path
     style="fill:#173651;fill-opacity:1"
     d="M482.068,496.935H289.083c-8.665,0-15.754-7.089-15.754-15.754V339.397  c0-8.665,7.089-15.754,15.754-15.754h192.985c8.665,0,15.754,7.089,15.754,15.754v141.785  C497.822,489.846,490.732,496.935,482.068,496.935z"
     id="path10" /><g
     id="g18"><rect
       x="305.546"
       y="355.316"
       style="fill:#FFFFFF;"
       width="160.689"
       height="110.277"
       id="rect14" /><path
       style="fill:#173651;fill-opacity:1"
       d="M322.166,323.643v-35.446c0-34.658,28.357-63.803,63.803-63.803s63.803,28.357,63.803,63.803v35.446   h31.508v-35.446c0-51.988-42.535-94.523-94.523-94.523s-94.523,42.535-94.523,94.523v35.446H322.166z"
       id="path16" /></g><path
     style="fill:#173651;"
     d="M403.298,400.049c0-9.452-7.877-17.329-17.329-17.329c-9.452,0-17.329,7.877-17.329,17.329  c0,7.089,3.938,12.603,9.452,15.754l-3.151,22.843h22.055l-3.151-22.843C399.36,412.652,403.298,406.351,403.298,400.049z"
     id="path22" /><g
     id="g32" /><g
     id="g34" /><g
     id="g36" /><g
     id="g38" /><g
     id="g40" /><g
     id="g42" /><g
     id="g44" /><g
     id="g46" /><g
     id="g48" /><g
     id="g50" /><g
     id="g52" /><g
     id="g54" /><g
     id="g56" /><g
     id="g58" /><g
     id="g60" /><path
     inkscape:connector-curvature="0"
     style="fill:#e1e6e8"
     d="M 202.437,42.437 V 463.852 C 58.289,411.077 40.96,309.464 39.385,298.437 V 102.302 Z"
     id="path8-7" /></svg>